# xmcd
#
# Track frame offsets:
#   150
#   15885
#   37880
#   55186
#   70051
#   83072
#   100511
#   118321
#   133907
#   152261
#   166697
#
# Disc length: 2527 seconds
#
# Revision: 0
# Processed by: cddbd v1.5.2PL0 Copyright (c) Steve Scherf et al.
# Submitted via: uFREEDB 1.6.0
#
DISCID=7609dd0b
DTITLE=Various Artist - Thank God I'm a country girl
DYEAR=1900
DGENRE=Country
TTITLE0=Someone else's wife - Jo Dee Messina
TTITLE1=Cowbow take me away - Dixie Chicks
TTITLE2=Baby, now that I've find you - Alison Krauss and Uni
TTITLE3=Not going down - Jo Dee Messina
TTITLE4=Restless - Alison Krauss and union station
TTITLE5=Landslide - Dixie Chicks
TTITLE6=Too late to worry - Jo Dee Messina
TTITLE7=Stay - alison Krauss and Union station
TTITLE8=Easy silence - Dixie Chicks
TTITLE9=The lucky one - Alison Krauss and Union station
TTITLE10=Baby hold on - Dixie Chicks
EXTD=
EXTT0=
EXTT1=
EXTT2=
EXTT3=
EXTT4=
EXTT5=
EXTT6=
EXTT7=
EXTT8=
EXTT9=
EXTT10=
PLAYORDER=
